<?xml version="1.0" encoding="UTF-8"?>
<svg version="1.1" xmlns="http://www.w3.org/2000/svg" width="2481" height="2481">
<path d="M0 0 C818.73 0 1637.46 0 2481 0 C2481 818.73 2481 1637.46 2481 2481 C1662.27 2481 843.54 2481 0 2481 C0 1662.27 0 843.54 0 0 Z " fill="#FEFEFE" transform="translate(0,0)"/>
<path d="M0 0 C0.71978027 0.21962402 1.43956055 0.43924805 2.18115234 0.66552734 C33.40382827 10.43254994 58.33354005 30.81930806 73.9765625 59.58203125 C87.1320515 84.96932598 91.04549604 114.17848308 84 142 C83.79503906 142.85722656 83.59007812 143.71445313 83.37890625 144.59765625 C75.39075887 174.31753376 55.49924785 200.45280979 29.03710938 216.16552734 C1.24031971 231.71981269 -30.73192139 236.93159295 -61.76855469 228.63720703 C-91.21022843 220.22990195 -117.7644984 200.76952477 -133.12109375 174.04931641 C-149.38106862 144.44429988 -153.710757 111.34325376 -144.36669922 78.79394531 C-134.96488491 48.52503302 -112.95662756 23.57990484 -85.3125 8.625 C-79.38575116 5.52592744 -73.39393683 2.965153 -67 1 C-66.10925781 0.72542969 -65.21851563 0.45085937 -64.30078125 0.16796875 C-43.44914578 -5.87037933 -20.80392114 -6.42624041 0 0 Z " fill="#AF0106" transform="translate(895,1070)"/>
<path d="M0 0 C3.26210984 1.66716684 4.96593279 4.4492477 6.9921875 7.39453125 C7.40082031 7.95720703 7.80945313 8.51988281 8.23046875 9.09960938 C15.64407948 19.64264145 19.12236672 29.72190969 20.8046875 42.45703125 C21.17592115 45.09100698 21.55882417 47.72309514 21.94140625 50.35546875 C22.12541992 51.64042236 22.30943359 52.92537598 22.49902344 54.24926758 C23.11016176 58.03847002 23.89042777 61.74951282 24.73828125 65.4921875 C25.9114661 70.8027469 26.59206225 75.71406327 26.4921875 81.14453125 C26.48566162 81.97960205 26.47913574 82.81467285 26.47241211 83.67504883 C26.19726771 97.85300531 24.76867499 112.0397713 23.46630859 126.15429688 C23.25876784 128.48920296 23.07158445 130.82629193 22.92822266 133.16601562 C22.54564082 138.83722876 21.36442291 142.35060846 18.3671875 147.20703125 C18.00592773 147.80394775 17.64466797 148.40086426 17.27246094 149.01586914 C16.23861614 150.71561531 15.17864023 152.39938743 14.1171875 154.08203125 C13.3746875 155.28279297 13.3746875 155.28279297 12.6171875 156.5078125 C11.81415102 157.80019933 11.00234344 159.08719981 10.1796875 160.3671875 C9.15875398 162.01494417 8.2594678 163.73620495 7.3671875 165.45703125 C5.05730289 169.53383954 1.94233373 172.81549597 -1.23681641 176.23242188 C-3.81771079 179.01191987 -6.36806103 181.81708743 -8.91796875 184.625 C-14.37044623 190.59137229 -19.97538427 196.39365805 -25.6796875 202.11914062 C-27.25729403 203.70650957 -28.82385018 205.30429208 -30.390625 206.90234375 C-31.43577919 207.95613658 -32.48264975 209.00822995 -33.53125 210.05859375 C-34.30100914 210.83334549 -34.30100914 210.83334549 -35.08631897 211.62374878 C-38.27828803 214.75386678 -41.57421335 217.31513371 -45.27854919 219.80859375 C-49.23672932 222.51403572 -52.31974551 224.69480444 -54.1875 229.29638672 C-54.81981578 232.80842367 -55.08997803 236.14155896 -55.1953125 239.70703125 C-55.27974609 240.90199219 -55.36417969 242.09695313 -55.45117188 243.328125 C-55.64967964 246.24735685 -55.79213132 249.15780339 -55.8828125 252.08203125 C-68.15931438 257.14582232 -78.93040249 259.34199695 -92.1953125 259.39453125 C-93.20932129 259.40000977 -94.22333008 259.40548828 -95.26806641 259.41113281 C-102.52955825 259.3420778 -109.49184688 258.95052251 -115.9453125 255.39453125 C-118.1213968 252.79726934 -118.19307335 251.60175802 -118.09838867 248.30493164 C-117.63401208 243.51654104 -116.53355988 238.83818991 -115.5078125 234.14453125 C-115.17523437 232.57541992 -115.17523437 232.57541992 -114.8359375 230.97460938 C-113.62614607 225.31349712 -112.32646281 219.68798176 -110.8828125 214.08203125 C-109.2328125 215.07203125 -107.5828125 216.06203125 -105.8828125 217.08203125 C-105.91947021 216.35201904 -105.95612793 215.62200684 -105.99389648 214.86987305 C-107.1033426 189.48903622 -107.1033426 189.48903622 -101.12890625 182.3125 C-100.38769531 181.57644531 -99.64648438 180.84039063 -98.8828125 180.08203125 C-98.04878906 179.17066406 -97.21476563 178.25929688 -96.35546875 177.3203125 C-91.21758369 171.91705605 -85.66755115 167.17417264 -79.84375 162.53515625 C-75.698833 159.10110892 -71.79746182 155.42879944 -67.87280273 151.74755859 C-64.2463597 148.3460462 -60.57816335 145.01381844 -56.81640625 141.76171875 C-51.00407879 136.71262621 -45.25560309 131.60003239 -39.8828125 126.08203125 C-39.37621094 125.62054687 -38.86960937 125.1590625 -38.34765625 124.68359375 C-33.96601835 120.59140345 -30.63567986 116.00370216 -27.29003906 111.0637207 C-12.82748601 89.74033332 -12.82748601 89.74033332 -4.48828125 87.4140625 C-0.28804643 87.15633665 1.4086795 87.54660163 4.8515625 90.1484375 C7.64148845 93.76091059 7.81284703 96.44925785 7.6171875 100.83203125 C7.59946289 101.54359375 7.58173828 102.25515625 7.56347656 102.98828125 C6.97031187 117.59746103 -1.15952129 128.10509507 -9.95117188 139.12890625 C-17.45623331 148.72300541 -21.41689513 157.82464618 -24.4453125 169.58203125 C-27.47862772 181.19449091 -30.88499202 191.21813165 -37.6328125 201.20703125 C-38.13941406 201.97273438 -38.64601563 202.7384375 -39.16796875 203.52734375 C-40.39828955 205.38443175 -41.63647275 207.23567345 -42.8828125 209.08203125 C-31.71759656 203.88568728 -24.83293909 189.02200095 -20.72460938 177.96484375 C-19.10383979 173.35816857 -17.5269782 168.74111411 -16.02734375 164.09350586 C-11.88832324 151.41965072 -11.88832324 151.41965072 -6.0703125 146.89453125 C2.49669464 140.06669097 10.91438038 123.87176689 13.1171875 113.08203125 C14.4317028 98.80026306 14.4317028 98.80026306 9.1171875 86.08203125 C4.04961207 81.38051093 -1.1552042 80.35711805 -7.8828125 80.08203125 C-7.39554688 78.60476563 -7.39554688 78.60476563 -6.8984375 77.09765625 C-5.33985446 70.846802 -5.58468306 64.42533868 -5.62207031 58.02636719 C-5.63285528 55.82329211 -5.62209809 53.62102007 -5.609375 51.41796875 C-5.61069554 50.0091128 -5.61325575 48.60025734 -5.6171875 47.19140625 C-5.62057129 45.2882666 -5.62057129 45.2882666 -5.62402344 43.34667969 C-5.87429843 40.189437 -6.45280577 38.79921821 -7.8828125 36.08203125 C-8.30936769 32.00985107 -8.20705821 27.92423551 -8.1953125 23.83203125 C-8.21142578 22.72472656 -8.22753906 21.61742187 -8.24414062 20.4765625 C-8.2482488 13.56661768 -8.17504665 6.86196375 -3.39624023 1.37524414 C-1.8828125 0.08203125 -1.8828125 0.08203125 0 0 Z " fill="#5B7477" transform="translate(1010.8828125,1151.91796875)"/>
<path d="M0 0 C3.3728963 1.58724532 4.73619025 4.68772134 6.125 8 C7.44718261 12.72208074 7.30873422 17.50960579 7.3125 22.375 C7.32474609 23.2 7.33699219 24.025 7.34960938 24.875 C7.36173295 29.96689962 6.66682043 34.10515002 5.125 39 C3.70608592 45.8107876 4.16608505 52.59193176 4.4375 59.5 C4.49067383 61.29630859 4.49067383 61.29630859 4.54492188 63.12890625 C4.76528613 69.06887394 5.1039115 74.39044825 7.125 80 C5.93003906 80.12955078 5.93003906 80.12955078 4.7109375 80.26171875 C-4.25499595 81.39745576 -4.25499595 81.39745576 -10.875 87 C-15.1753377 95.0191832 -16.84859255 104.18850031 -14.28320312 113.04248047 C-10.23208957 124.82240946 -4.11004135 139.61220325 6.0625 147.1875 C13.14906292 152.93009781 15.37157522 163.39719559 17.9375 171.75 C22.84508025 186.94991498 29.56982045 198.89224323 41.125 210 C41.785 210.33 42.445 210.66 43.125 211 C42.08466892 209.35332211 41.04264553 207.70771339 40 206.0625 C39.360625 205.04929687 38.72125 204.03609375 38.0625 202.9921875 C36.91536147 201.22059855 35.73853624 199.46675433 34.5 197.7578125 C27.51818214 188.12144931 24.83066577 176.63249911 22.3125 165.1796875 C19.61369989 154.85619711 14.96538162 146.82210614 8.25 138.625 C-1.5151386 126.25125956 -10.2016542 113.45051203 -8.875 97 C-7.8023447 93.48445875 -6.50903591 90.63403591 -3.875 88 C0.01798832 87.16001912 3.66392694 87.26946347 7.25 89.0625 C14.3212061 94.14492939 19.34562868 100.81774693 24.23168945 107.9206543 C32.55253134 120.0011948 41.58289076 130.53269599 53.1796875 139.59375 C56.82215363 142.56955787 60.21319807 145.76515698 63.625 149 C67.84647018 152.99450942 72.07764887 156.87294612 76.625 160.5 C101.21395706 180.26687117 101.21395706 180.26687117 105.125 192 C105.14083723 193.92093176 105.09157609 195.84272328 105.00390625 197.76171875 C104.95556641 198.87998047 104.90722656 199.99824219 104.85742188 201.15039062 C104.80134766 202.31763672 104.74527344 203.48488281 104.6875 204.6875 C104.63529297 205.86634766 104.58308594 207.04519531 104.52929688 208.25976562 C104.39953806 211.17344094 104.26456868 214.08678078 104.125 217 C106.105 216.01 108.085 215.02 110.125 214 C110.301521 214.79696289 110.47804199 215.59392578 110.65991211 216.41503906 C111.46021916 220.02681608 112.2613503 223.63840981 113.0625 227.25 C113.34029297 228.50425781 113.61808594 229.75851562 113.90429688 231.05078125 C114.17177734 232.25605469 114.43925781 233.46132812 114.71484375 234.703125 C114.96097412 235.81333008 115.20710449 236.92353516 115.46069336 238.06738281 C115.84761796 239.77548214 116.25059677 241.48038473 116.69360352 243.17480469 C117.41542573 246.22876217 117.40343723 248.88150298 117.125 252 C114.31712474 255.71040659 111.21565145 257.53163977 106.71875 258.5390625 C94.15004953 260.15113495 79.37578492 260.40096417 67.125 257 C65.48917969 256.60941406 65.48917969 256.60941406 63.8203125 256.2109375 C60.40661272 255.15871474 57.94023183 254.2050338 55.125 252 C53.36781604 247.71057787 53.21928868 243.59919245 53.125 239 C53.03974881 236.99910447 52.93708843 234.99883176 52.8125 233 C52.78736328 231.7315625 52.78736328 231.7315625 52.76171875 230.4375 C51.83420542 226.88677411 49.83918284 225.42828396 47.125 223 C46.16851563 222.11570312 45.21203125 221.23140625 44.2265625 220.3203125 C43.4068396 219.56874878 43.4068396 219.56874878 42.57055664 218.80200195 C33.94658674 210.85805006 25.59098988 202.63700321 17.27044678 194.37762451 C15.89683976 193.01577045 14.52063165 191.65653424 13.1416626 190.30010986 C2.38353694 179.70774986 -7.08175447 169.14661801 -14.1875 155.6875 C-14.99576969 154.19123115 -15.80435901 152.69513492 -16.61328125 151.19921875 C-16.99178223 150.47782715 -17.3702832 149.75643555 -17.76025391 149.01318359 C-18.96123195 146.76226353 -18.96123195 146.76226353 -21.04296875 143.89453125 C-28.17084306 131.45768089 -25.98390001 110.87620031 -26.68457031 96.79150391 C-26.79931932 94.50682183 -26.92138658 92.2224667 -27.05761719 89.93896484 C-28.76754895 59.73198564 -21.9457817 25.33857536 -3.875 1 C-1.875 0 -1.875 0 0 0 Z " fill="#5B7477" transform="translate(718.875,1152)"/>
<path d="M0 0 C11.16638081 9.83704976 17.07077075 22.43370522 18.16457748 37.22563934 C18.41167328 43.13603176 18.34526441 49.04711692 18.29296875 54.9609375 C18.28735968 56.8466457 18.2830958 58.73235834 18.28010559 60.61807251 C18.26875991 65.53353368 18.23938369 70.44872047 18.20599365 75.36407471 C18.16961246 81.28724499 18.15608258 87.21050804 18.13863373 93.13375854 C18.10973826 102.08936203 18.05218 111.04436585 18 120 C5.79 120 -6.42 120 -19 120 C-19.33 114.72 -19.66 109.44 -20 104 C-20.99 105.19625 -21.98 106.3925 -23 107.625 C-31.1926622 116.91767897 -41.11674356 122.41227913 -53.6015625 123.23828125 C-65.8627635 123.57587106 -76.49038736 121.34333939 -86 113 C-94.78606636 103.27379035 -96.72164427 92.56393062 -96.28125 79.8046875 C-95.55957203 70.0419883 -92.08563323 61.92701699 -84.99609375 55.05859375 C-69.54292654 42.25927994 -49.17535286 41.45757096 -30.0859375 38.76953125 C-28.5088501 38.54680542 -28.5088501 38.54680542 -26.89990234 38.31958008 C-24.2356829 38.02597314 -21.6771067 37.93925478 -19 38 C-19.89986232 31.20402488 -20.90749185 26.74529169 -26 22 C-36.15702694 15.86346289 -47.87671388 17.50605833 -59.00390625 19.875 C-66.00750979 21.68462675 -72.47530969 24.94385273 -79 28 C-80.65 28.66 -82.3 29.32 -84 30 C-84 20.43 -84 10.86 -84 1 C-70.4081042 -4.66328992 -70.4081042 -4.66328992 -63.8125 -6.25 C-62.54019531 -6.56453125 -61.26789063 -6.8790625 -59.95703125 -7.203125 C-40.81688982 -11.32095288 -16.16353932 -12.60601392 0 0 Z " fill="#AF0207" transform="translate(1295,1292)"/>
<path d="M0 0 C12.87 0 25.74 0 39 0 C39.05607422 8.86552734 39.05607422 8.86552734 39.11328125 17.91015625 C39.14356743 21.66083612 39.17471953 25.4114689 39.20898438 29.16210938 C39.26325457 35.11154781 39.31436682 41.06089311 39.34643555 47.01049805 C39.37249938 51.8087524 39.41292371 56.60669299 39.46318626 61.40475273 C39.47983413 63.23267137 39.49136134 65.06064425 39.49761391 66.88862801 C39.50727768 69.45481154 39.53536364 72.02019613 39.56762695 74.58618164 C39.56619186 75.33712601 39.56475677 76.08807037 39.5632782 76.86177063 C39.68894093 83.95762737 41.87687091 89.87687091 47 95 C53.12003625 98.48002061 58.6253952 98.91909449 65.3984375 97.49609375 C71.56510314 95.70345839 74.94892428 92.88669916 78.6875 87.625 C81.54087366 81.91825267 82.29950754 76.34977222 82.31884766 70.04516602 C82.32889328 69.28336533 82.3389389 68.52156464 82.34928894 67.73667908 C82.37994578 65.24242848 82.39710687 62.74828434 82.4140625 60.25390625 C82.43278827 58.51512243 82.45236272 56.77634756 82.4727478 55.0375824 C82.52392625 50.47894586 82.56362815 45.92027992 82.60089111 41.36151123 C82.64808613 35.8822291 82.70962241 30.4030913 82.76873779 24.92392731 C82.85677577 16.61601026 82.92666469 8.30811842 83 0 C95.87 0 108.74 0 122 0 C122 41.58 122 83.16 122 126 C108.8 126 95.6 126 82 126 C81.67 120.72 81.34 115.44 81 110 C80.05125 111.175625 79.1025 112.35125 78.125 113.5625 C70.10814638 122.63969899 60.12203491 128.47450699 47.9140625 129.37890625 C35.23090854 129.91699684 22.80801114 127.61675473 13 119 C10.68501358 116.49815369 8.79640772 113.89298789 7 111 C6.43152344 110.09314453 6.43152344 110.09314453 5.8515625 109.16796875 C-1.08396631 96.78309588 -0.40686733 82.75000221 -0.29296875 69.04296875 C-0.28736193 67.04372987 -0.28309698 65.04448682 -0.28010559 63.04524231 C-0.26874227 57.82563564 -0.23934993 52.60628605 -0.20599365 47.38677979 C-0.16966136 41.1015326 -0.15609103 34.81619866 -0.13863373 28.53087616 C-0.10970631 19.02040622 -0.05215996 9.51049851 0 0 Z " fill="#B00308" transform="translate(1536,1286)"/>
<path d="M0 0 C13.2 0 26.4 0 40 0 C40 47.52 40 95.04 40 144 C61.45 144 82.9 144 105 144 C105 154.89 105 165.78 105 177 C70.35 177 35.7 177 0 177 C0 118.59 0 60.18 0 0 Z " fill="#AF0207" transform="translate(1415,1235)"/>
<path d="M0 0 C13.2 0 26.4 0 40 0 C40 47.52 40 95.04 40 144 C61.45 144 82.9 144 105 144 C105 154.89 105 165.78 105 177 C70.35 177 35.7 177 0 177 C0 118.59 0 60.18 0 0 Z " fill="#AF0207" transform="translate(1085,1235)"/>
<path d="M0 0 C35.31 0 70.62 0 107 0 C107 21.66712803 107 21.66712803 100.04858398 29.73461914 C99.53626221 30.24629639 99.02394043 30.75797363 98.49609375 31.28515625 C94.77596556 35.15504638 91.58473984 39.32924717 88.375 43.625 C87.28379368 45.06084027 86.1913657 46.495753 85.09765625 47.9296875 C84.57445801 48.61772461 84.05125977 49.30576172 83.51220703 50.01464844 C81.28866053 52.93390581 79.05173419 55.8427683 76.8125 58.75 C76.01070312 59.7915625 75.20890625 60.833125 74.3828125 61.90625 C72.79427083 63.96875 71.20572917 66.03125 69.6171875 68.09375 C68.81539062 69.1353125 68.01359375 70.176875 67.1875 71.25 C66.78901855 71.76755859 66.39053711 72.28511719 65.97998047 72.81835938 C63.48516975 76.06131991 60.99813629 79.31011307 58.515625 82.5625 C57.92241455 83.33948242 57.3292041 84.11646484 56.71801758 84.91699219 C55.54530877 86.45358966 54.37325421 87.9906867 53.2019043 89.52832031 C52.66992432 90.22538086 52.13794434 90.92244141 51.58984375 91.640625 C51.11409912 92.26485352 50.63835449 92.88908203 50.14819336 93.53222656 C49 95 49 95 48 96 C77.7 96.495 77.7 96.495 108 97 C108 106.57 108 116.14 108 126 C70.38 126 32.76 126 -6 126 C-6 107.09091575 -6 107.09091575 -2.24267578 102.8347168 C-1.70884277 102.31176025 -1.17500977 101.78880371 -0.625 101.25 C0.49104252 100.01303373 1.60560416 98.77472988 2.71875 97.53515625 C3.27691406 96.94105957 3.83507813 96.34696289 4.41015625 95.73486328 C6.75332228 93.17796251 8.79187287 90.46153096 10.875 87.6875 C11.68871698 86.62133568 12.50386481 85.55626215 13.3203125 84.4921875 C13.74602539 83.9362793 14.17173828 83.38037109 14.61035156 82.80761719 C17.30868178 79.29770206 20.03052081 75.80603655 22.75 72.3125 C23.63703613 71.17228394 23.63703613 71.17228394 24.54199219 70.0090332 C27.55288693 66.13979785 30.56712285 62.27321567 33.5859375 58.41015625 C34.17922852 57.64985107 34.77251953 56.8895459 35.38378906 56.10620117 C36.48083852 54.70043351 37.57899164 53.29552576 38.67871094 51.8918457 C44.56659953 44.34264037 50.25187718 36.66416376 56 29 C37.52 29 19.04 29 0 29 C0 19.43 0 9.86 0 0 Z " fill="#B00409" transform="translate(1681,1286)"/>
<path d="M0 0 C0.93714844 -0.02384766 1.87429688 -0.04769531 2.83984375 -0.07226562 C9.37262967 -0.05856048 13.87227117 1.26564503 18.875 5.5625 C22.57261134 10.30302736 24.00266715 13.81463002 23.98852539 19.76831055 C23.98844986 20.82918381 23.98837433 21.89005707 23.98829651 22.983078 C23.98313522 24.12690445 23.97797394 25.2707309 23.97265625 26.44921875 C23.9712413 27.62136429 23.96982635 28.79350983 23.96836853 30.00117493 C23.96276388 33.75080907 23.95021056 37.50038385 23.9375 41.25 C23.9324856 43.78971268 23.92792259 46.3294263 23.92382812 48.86914062 C23.91279294 55.10028073 23.89605025 61.33138612 23.875 67.5625 C21.235 67.5625 18.595 67.5625 15.875 67.5625 C15.38 63.1075 15.38 63.1075 14.875 58.5625 C14.215 58.5625 13.555 58.5625 12.875 58.5625 C12.49988281 59.46935547 12.49988281 59.46935547 12.1171875 60.39453125 C10.68714229 62.89036487 9.44980307 63.78474043 7 65.25 C6.32195312 65.66636719 5.64390625 66.08273437 4.9453125 66.51171875 C0.53304734 68.75115145 -3.58023002 68.7535806 -8.5 68.8125 C-9.78648438 68.83828125 -11.07296875 68.8640625 -12.3984375 68.890625 C-18.94780686 68.31395097 -22.86230389 65.41723723 -27.125 60.5625 C-30.54193548 55.26983421 -29.68635963 48.59009906 -29.125 42.5625 C-26.65517095 37.14787478 -22.4354915 32.99486706 -16.94921875 30.62109375 C-9.53079244 28.04022947 -2.55046356 27.41913395 5.25 27.5 C6.08144531 27.50451172 6.91289063 27.50902344 7.76953125 27.51367188 C9.80471897 27.52536836 11.83986923 27.54330065 13.875 27.5625 C13.62389197 21.20946693 13.23204425 16.54197914 8.875 11.5625 C3.98776003 8.46118798 -1.55284423 8.97523849 -7.125 9.5625 C-9.93229086 10.4211129 -12.50550944 11.44856265 -15.1640625 12.6875 C-17.125 13.5625 -17.125 13.5625 -19.125 13.5625 C-20.6875 10.75 -20.6875 10.75 -22.125 7.5625 C-21.125 4.5625 -21.125 4.5625 -19.23095703 3.41430664 C-12.69040535 0.75870061 -7.03251779 -0.08290763 0 0 Z " fill="#5D7679" transform="translate(1430.125,1119.4375)"/>
<path d="M0 0 C1.04414062 0.97839844 1.04414062 0.97839844 2.109375 1.9765625 C1.234375 6.8515625 1.234375 6.8515625 0.109375 7.9765625 C-7.29651408 8.46219457 -7.29651408 8.46219457 -9.73046875 6.47265625 C-12.75465348 4.37814856 -15.00823133 4.68009069 -18.640625 4.7890625 C-19.81109375 4.81613281 -20.9815625 4.84320312 -22.1875 4.87109375 C-23.07953125 4.90589844 -23.9715625 4.94070313 -24.890625 4.9765625 C-23.95895447 8.09608856 -23.37032109 9.64562234 -20.6484375 11.5234375 C-19.77960937 11.92046875 -18.91078125 12.3175 -18.015625 12.7265625 C-17.15195312 13.13390625 -16.28828125 13.54125 -15.3984375 13.9609375 C-11.36738591 15.5934506 -7.71980029 16.13840925 -3.3828125 16.40625 C-2.31289063 16.47972656 -1.24296875 16.55320312 -0.140625 16.62890625 C2.08553463 16.77577095 4.31210648 16.91653213 6.5390625 17.05078125 C17.45898441 17.8214456 26.23073371 19.70085878 34.546875 27.1640625 C36.49991052 30.67952644 36.29949798 32.78922105 35.859375 36.6953125 C34.07139481 42.13375226 30.08314214 44.92106102 25.359375 47.7890625 C23.88210938 48.69591797 23.88210938 48.69591797 22.375 49.62109375 C21.62734375 50.06839844 20.8796875 50.51570313 20.109375 50.9765625 C20.893125 51.6984375 21.676875 52.4203125 22.484375 53.1640625 C26.21317402 57.15920431 27.08225511 59.32224923 27.171875 64.7890625 C26.37061912 69.9190544 23.14298795 73.83652426 19.109375 76.9765625 C14.61021692 76.9765625 13.0305081 76.30295765 9.55810547 73.67431641 C6.78606656 70.42578952 7.38061178 66.71934276 7.671875 62.6640625 C7.70345703 61.82810547 7.73503906 60.99214844 7.76757812 60.13085938 C7.8496962 58.07790744 7.97524905 56.02677352 8.109375 53.9765625 C10.419375 54.9665625 12.729375 55.9565625 15.109375 56.9765625 C15.604375 64.4015625 15.604375 64.4015625 16.109375 71.9765625 C20.09744428 68.63872314 20.09744428 68.63872314 20.67578125 65.9765625 C20.67384766 64.9865625 20.67384766 64.9865625 20.671875 63.9765625 C20.69378906 63.3165625 20.71570313 62.6565625 20.73828125 61.9765625 C19.73386582 58.78239666 17.87770144 57.80416063 15.109375 55.9765625 C12.24314901 54.57981929 9.30775038 53.37548601 6.359375 52.1640625 C-1.61129132 48.75172359 -8.31983418 45.17749288 -14.015625 38.4765625 C-15.23724406 34.98622234 -14.74704044 32.53398047 -13.890625 28.9765625 C-13.230625 27.9865625 -12.570625 26.9965625 -11.890625 25.9765625 C-11.230625 25.9765625 -10.570625 25.9765625 -9.890625 25.9765625 C-9.890625 24.9865625 -9.890625 23.9965625 -9.890625 22.9765625 C-10.67566406 22.68523437 -11.46070313 22.39390625 -12.26953125 22.09375 C-26.63452744 16.48875762 -26.63452744 16.48875762 -29.890625 9.9765625 C-30.265625 7.1015625 -30.265625 7.1015625 -29.890625 3.9765625 C-23.83285956 -3.05826188 -7.45101468 -5.21571028 0 0 Z " fill="#B41116" transform="translate(852.890625,1145.0234375)"/>
<path d="M0 0 C-1.05875074 3.40312738 -2.00902154 6.01353231 -4 9 C-4.59683594 8.7834375 -5.19367188 8.566875 -5.80859375 8.34375 C-15.17678995 5.33701838 -27.10790367 3.94092718 -36.625 7.1875 C-45.41977196 11.91061827 -50.29392999 16.86667824 -53.8125 26.375 C-57.174461 38.89540646 -56.09649483 53.09949319 -49.64453125 64.3671875 C-45.55398979 70.3549506 -40.32034444 73.91630417 -33.1875 75.68359375 C-22.76315572 77.19140069 -13.08348518 75.57450685 -3 73 C-3 76.3 -3 79.6 -3 83 C-14.02721681 88.01237128 -31.82672025 88.17330682 -43.25 84.5625 C-54.21895247 79.57180298 -61.28466689 70.14480949 -65.421875 59.15234375 C-68.86868262 46.31997213 -69.15509743 28.93002708 -63 17 C-57.23681334 7.02854585 -49.95110252 0.05308923 -38.984375 -3.6875 C-26.34791348 -7.05722307 -11.72382203 -5.73164632 0 0 Z " fill="#5E7679" transform="translate(1155,1102)"/>
<path d="M0 0 C5.1508402 3.2973998 8.23592318 7.31891236 9.8671875 13.1953125 C10.26425735 17.21977747 10.2169655 21.21328165 10.16015625 25.25390625 C10.15591141 26.39819595 10.15166656 27.54248566 10.14729309 28.72145081 C10.13056554 32.35881561 10.09292315 35.99561652 10.0546875 39.6328125 C10.03963306 42.10611176 10.02594598 44.57941975 10.01367188 47.05273438 C9.98068123 53.10047608 9.92893883 59.14779884 9.8671875 65.1953125 C6.5671875 65.1953125 3.2671875 65.1953125 -0.1328125 65.1953125 C-0.14739502 63.74237793 -0.16197754 62.28944336 -0.17700195 60.79248047 C-0.23506368 55.39135379 -0.31229689 49.99064055 -0.39526367 44.58984375 C-0.42847583 42.25430013 -0.45651926 39.91867697 -0.47924805 37.58300781 C-0.51286151 34.22166105 -0.56518253 30.86104081 -0.62109375 27.5 C-0.62748367 26.45915253 -0.6338736 25.41830505 -0.64045715 24.34591675 C-0.75003935 18.91743048 -1.00116737 14.84312011 -4.1328125 10.1953125 C-9.24407411 6.36186629 -15.00414771 6.4216229 -21.1328125 7.1953125 C-25.83574467 8.58036906 -28.51103835 10.41410908 -31.5703125 14.2578125 C-33.5067455 17.89830654 -34.25845582 20.60312194 -34.33813477 24.66674805 C-34.35807999 25.56745529 -34.37802521 26.46816254 -34.39857483 27.39616394 C-34.42364357 28.84941826 -34.42364357 28.84941826 -34.44921875 30.33203125 C-34.46999985 31.32660843 -34.49078094 32.32118561 -34.51219177 33.34590149 C-34.57760662 36.52480117 -34.6365349 39.70378384 -34.6953125 42.8828125 C-34.73850538 45.03711798 -34.78211992 47.19141504 -34.82617188 49.34570312 C-34.93327981 54.62882108 -35.03457016 59.91202255 -35.1328125 65.1953125 C-38.7628125 65.1953125 -42.3928125 65.1953125 -46.1328125 65.1953125 C-46.1328125 43.0853125 -46.1328125 20.9753125 -46.1328125 -1.8046875 C-43.1628125 -1.8046875 -40.1928125 -1.8046875 -37.1328125 -1.8046875 C-35.6544899 1.15195769 -36.07248467 3.93760987 -36.1328125 7.1953125 C-35.4728125 7.1953125 -34.8128125 7.1953125 -34.1328125 7.1953125 C-33.8234375 6.3290625 -33.8234375 6.3290625 -33.5078125 5.4453125 C-27.00990074 -5.18763402 -9.88575147 -5.17825077 0 0 Z " fill="#5F787A" transform="translate(1281.1328125,1121.8046875)"/>
<path d="M0 0 C4.29541067 3.98859563 6.38338288 8.58298666 8.69140625 13.92578125 C9.81292138 16.157961 9.81292138 16.157961 12.02734375 16.79296875 C14.00093084 17.03479241 14.00093084 17.03479241 16 17 C16 22.61 16 28.22 16 34 C10.49033835 36.75483083 8.77139525 37.54447125 3 37 C2.01 36.34 1.02 35.68 0 35 C0 34.34 0 33.68 0 33 C-0.721875 33.495 -1.44375 33.99 -2.1875 34.5 C-5.198557 36.10589707 -6.65585985 36.52802213 -10 36 C-10.45246094 35.49726562 -10.90492188 34.99453125 -11.37109375 34.4765625 C-12.89794271 32.7939144 -12.89794271 32.7939144 -15.12109375 32.8125 C-15.88550781 32.874375 -16.64992188 32.93625 -17.4375 33 C-21.50096699 33.1570422 -22.81679823 32.54656142 -26 30 C-29.66714849 29.74936268 -29.66714849 29.74936268 -33 30 C-33.66 28.35 -34.32 26.7 -35 25 C-35.99 25.33 -36.98 25.66 -38 26 C-44.54098361 26.2295082 -44.54098361 26.2295082 -47 25 C-47 24.01 -47 23.02 -47 22 C-48.5159375 22.185625 -48.5159375 22.185625 -50.0625 22.375 C-54.73469711 21.93002885 -56.32051543 20.62679396 -59.71484375 17.60546875 C-61 16 -61 16 -61 13 C-60.34628418 13.0314209 -59.69256836 13.0628418 -59.01904297 13.09521484 C-45.46819095 13.65993296 -35.01181673 13.79298727 -23 7 C-20.90465084 5.87134452 -18.80151016 4.76129046 -16.6875 3.66796875 C-15.31009289 2.95141321 -13.9431615 2.21419874 -12.58984375 1.453125 C-7.99547671 -0.9953134 -5.01784946 -1.37576289 0 0 Z " fill="#FDF9FA" transform="translate(842,1099)"/>
<path d="M0 0 C3.71535102 1.54928119 7.18419241 3.46108203 10.6875 5.4375 C20.63917662 10.93803747 27.423493 13.30833693 38.875 13.125 C39.94492187 13.11597656 41.01484375 13.10695313 42.1171875 13.09765625 C44.74502439 13.07419342 47.37239406 13.04136459 50 13 C49.46697267 16.7813586 49.33355864 17.71298442 46.3125 20.3125 C42.81897751 22.09221901 40.85317399 22.36696895 37 22 C37 22.99 37 23.98 37 25 C34.75487738 26.12256131 33.48543351 26.13413762 31 26.125 C29.948125 26.12886719 29.948125 26.12886719 28.875 26.1328125 C27 26 27 26 25 25 C24.34 26.65 23.68 28.3 23 30 C21.01432292 29.90234375 19.02864583 29.8046875 17.04296875 29.70703125 C14.89159499 29.80430334 14.89159499 29.80430334 13.51953125 31.51171875 C12 33 12 33 9.84375 33.1875 C8.28125 33.0625 6.71875 32.9375 5.15625 32.8125 C2.40856554 33.05142908 1.82204675 34.02569308 0 36 C-3.95730595 36.42098999 -6.60268371 36.09065618 -10 34 C-10.515625 34.495 -11.03125 34.99 -11.5625 35.5 C-14.9129075 37.56178923 -17.12391554 37.40800889 -21 37 C-23.703125 36.01953125 -23.703125 36.01953125 -26 34 C-26.63098382 31.08812366 -26.47043479 28.2743848 -26.3125 25.3125 C-26.28994141 24.51521484 -26.26738281 23.71792969 -26.24414062 22.89648438 C-26.18526944 20.93018666 -26.09558755 18.96485509 -26 17 C-25.236875 17.0825 -24.47375 17.165 -23.6875 17.25 C-20.92264141 17.28413635 -20.92264141 17.28413635 -19.33984375 15.3125 C-17.95277549 12.91849298 -16.7289725 10.50887201 -15.5625 8 C-11.58181596 0.05037436 -9.09115265 -2.13119342 0 0 Z " fill="#FDF9FA" transform="translate(896,1099)"/>
<path d="M0 0 C-0.875 6.75 -0.875 6.75 -2 9 C-2.99902344 8.84144531 -3.99804688 8.68289063 -5.02734375 8.51953125 C-8.87504054 7.97456187 -12.67434184 7.76326924 -16.5625 7.6875 C-18.45162109 7.63142578 -18.45162109 7.63142578 -20.37890625 7.57421875 C-25.81920033 8.21390813 -28.83690677 10.57844161 -32.25 14.75 C-36.99238854 23.55729301 -37.35608126 33.77876162 -34.8125 43.375 C-32.93689507 48.82652461 -30.60669364 52.66634279 -25.3125 55.375 C-16.69867875 57.00024929 -8.52440278 55.6404349 0 54 C0 56.97 0 59.94 0 63 C-9.0087189 66.93107734 -19.49244162 67.73144548 -29.0390625 65.19140625 C-35.80707955 62.16360915 -42.05066466 56.80908653 -44.87402344 49.84375 C-46.93957013 43.63488775 -47.46066949 37.88588127 -47.375 31.375 C-47.38660156 30.48554687 -47.39820313 29.59609375 -47.41015625 28.6796875 C-47.36812894 19.1534963 -44.18384309 11.29804906 -38 4 C-26.88018386 -5.31171596 -12.99172236 -4.33057412 0 0 Z " fill="#5E7779" transform="translate(1389,1122)"/>
<path d="M0 0 C0.53357917 10.28622074 0.40142571 18.82832479 -6.5 26.9375 C-7.325 27.618125 -8.15 28.29875 -9 29 C-9.66 29.556875 -10.32 30.11375 -11 30.6875 C-16.75267778 34.4626948 -22.31096616 34.6142011 -29 34 C-34.0699073 32.80926948 -37.15868804 30.37124917 -40 26 C-41.76868133 20.69395601 -41.8577347 15.85842519 -39.5 10.75 C-33.69385695 4.36324265 -27.47193551 2.1930456 -19.0625 1.1875 C-18.22009766 1.06697266 -17.37769531 0.94644531 -16.50976562 0.82226562 C-10.96746457 0.07561229 -5.58958872 -0.10716669 0 0 Z " fill="#FEFCFC" transform="translate(1276,1353)"/>
<path d="M0 0 C3.63 0 7.26 0 11 0 C11 31.02 11 62.04 11 94 C7.37 94 3.74 94 0 94 C0 62.98 0 31.96 0 0 Z " fill="#60787B" transform="translate(1170,1093)"/>
<path d="M0 0 C1.04414062 0.97839844 1.04414062 0.97839844 2.109375 1.9765625 C1.234375 6.8515625 1.234375 6.8515625 0.109375 7.9765625 C-7.29651408 8.46219457 -7.29651408 8.46219457 -9.73046875 6.47265625 C-12.75465348 4.37814856 -15.00823133 4.68009069 -18.640625 4.7890625 C-19.81109375 4.81613281 -20.9815625 4.84320312 -22.1875 4.87109375 C-23.07953125 4.90589844 -23.9715625 4.94070313 -24.890625 4.9765625 C-23.95895447 8.09608856 -23.37032109 9.64562234 -20.6484375 11.5234375 C-19.77960937 11.92046875 -18.91078125 12.3175 -18.015625 12.7265625 C-17.15195312 13.13390625 -16.28828125 13.54125 -15.3984375 13.9609375 C-11.36738591 15.5934506 -7.71980029 16.13840925 -3.3828125 16.40625 C-2.31289063 16.47972656 -1.24296875 16.55320312 -0.140625 16.62890625 C2.08553463 16.77577095 4.31210648 16.91653213 6.5390625 17.05078125 C17.45898441 17.8214456 26.23073371 19.70085878 34.546875 27.1640625 C36.83177658 31.27688534 36.345906 34.5266779 35.109375 38.9765625 C32.33633243 43.94493044 27.2606177 47.63670614 22.109375 49.9765625 C18.546875 49.3515625 18.546875 49.3515625 16.109375 47.9765625 C16.109375 47.3165625 16.109375 46.6565625 16.109375 45.9765625 C18.26171875 44.28515625 18.26171875 44.28515625 21.046875 42.4140625 C24.22739831 40.38154209 24.22739831 40.38154209 27.109375 37.9765625 C27.1709692 34.56519774 27.1709692 34.56519774 26.109375 30.9765625 C20.91349658 26.22455309 15.2847795 26.05202564 8.484375 25.4140625 C6.32237412 25.17410985 4.1608983 24.92937457 2 24.6796875 C0.97455078 24.56173828 -0.05089844 24.44378906 -1.10742188 24.32226562 C-11.70783109 23.00558322 -20.66981323 19.94876418 -28.515625 12.4765625 C-30.26554985 9.29488096 -30.57491511 7.55007753 -29.890625 3.9765625 C-23.83285956 -3.05826188 -7.45101468 -5.21571028 0 0 Z " fill="#FBF3F3" transform="translate(852.890625,1145.0234375)"/>
<path d="M0 0 C3.3 0 6.6 0 10 0 C10 22.11 10 44.22 10 67 C6.7 67 3.4 67 0 67 C0 44.89 0 22.78 0 0 Z " fill="#5B7376" transform="translate(1313,1120)"/>
<path d="M0 0 C3.3 0 6.6 0 10 0 C10 22.11 10 44.22 10 67 C6.7 67 3.4 67 0 67 C0 44.89 0 22.78 0 0 Z " fill="#5B7376" transform="translate(1203,1120)"/>
<path d="M0 0 C0.51130061 6.93096386 0.14951442 12.24959267 -4 18 C-8.52516239 22.99547421 -13.33590679 24.74627684 -19.9375 25.375 C-24.50564144 25.26958135 -27.28423226 23.57828782 -31 21 C-32.9854599 17.02908021 -32.53122602 12.31855502 -32 8 C-29.28061806 3.78934409 -25.71799539 1.91817949 -21.0234375 0.4921875 C-14.10072444 -0.63476579 -6.98867959 -0.20355377 0 0 Z " fill="#FBFBFB" transform="translate(1444,1155)"/>
<path d="M0 0 C-0.825 0.680625 -1.65 1.36125 -2.5 2.0625 C-5.22457189 4.827192 -5.22457189 4.827192 -5.875 8.4375 C-4.91974256 12.32676243 -4.5900417 12.78014246 -1.5 15 C3.51412633 17.9941041 8.89690779 20.24712893 14.32617188 22.37695312 C19.63893168 24.53833931 23.37283189 27.26339909 26.375 32.3125 C27.26187823 36.12607638 27.27703621 39.32347997 26 43 C24.01429229 46.0513362 21.88051745 48.75760961 19 51 C14.50084192 51 12.9211331 50.32639515 9.44873047 47.69775391 C6.67669156 44.44922702 7.27123678 40.74278026 7.5625 36.6875 C7.59408203 35.85154297 7.62566406 35.01558594 7.65820312 34.15429688 C7.7403212 32.10134494 7.86587405 30.05021102 8 28 C10.31 28.99 12.62 29.98 15 31 C15.33 35.95 15.66 40.9 16 46 C19.98806928 42.66216064 19.98806928 42.66216064 20.56640625 40 C20.56447266 39.01 20.56447266 39.01 20.5625 38 C20.58441406 37.34 20.60632813 36.68 20.62890625 36 C19.62449082 32.80583416 17.76832644 31.82759813 15 30 C12.13377401 28.60325679 9.19837538 27.39892351 6.25 26.1875 C-1.72066632 22.77516109 -8.42920918 19.20093038 -14.125 12.5 C-15.37168408 8.93804549 -14.98595755 6.61517769 -14 3 C-10.73479314 -2.67862063 -5.61390262 -0.98564702 0 0 Z " fill="#FAF0F0" transform="translate(853,1171)"/>
<path d="M0 0 C2.97 0.33 5.94 0.66 9 1 C9.15936206 20.02782979 8.71726525 38.98865566 8 58 C5.69 58 3.38 58 1 58 C0.10583884 38.64949647 -0.12713709 19.36591341 0 0 Z " fill="#FAF1F1" transform="translate(860,1102)"/>
<path d="M0 0 C-0.144375 0.680625 -0.28875 1.36125 -0.4375 2.0625 C-0.623125 3.031875 -0.80875 4.00125 -1 5 C-1.29777344 6.09570312 -1.59554687 7.19140625 -1.90234375 8.3203125 C-2.40783084 12.1791462 -2.40783084 12.1791462 0.4921875 15.01953125 C1.60064948 15.97323183 2.72929355 16.90388045 3.875 17.8125 C10.86317871 23.66767468 10.86317871 23.66767468 11.23828125 27.3203125 C11.41743589 34.09047213 10.50495583 38.19491691 7 44 C6.34 44 5.68 44 5 44 C5.66 45.65 6.32 47.3 7 49 C2.49930712 45.52275235 -1.24163828 42.58538428 -3 37 C-3.9271137 25.87463557 -3.9271137 25.87463557 -1 21 C-1.42152344 20.51789063 -1.84304688 20.03578125 -2.27734375 19.5390625 C-2.82519531 18.90742187 -3.37304688 18.27578125 -3.9375 17.625 C-4.48277344 16.99851562 -5.02804687 16.37203125 -5.58984375 15.7265625 C-8.45552491 12.21788917 -8.37885199 9.47045346 -8 5 C-5.0212766 0 -5.0212766 0 0 0 Z " fill="#C1393C" transform="translate(860,1226)"/>
<path d="M0 0 C3.55609176 1.20653113 6.80593537 2.49343537 9.5 5.1875 C9.9875885 9.41326698 10.07100011 11.44346956 7.4375 14.875 C2.2881299 18.92875944 -3.70188305 23.05899117 -10.5 23.1875 C-13.40739964 22.20345704 -15.92397027 20.84547658 -18.5 19.1875 C-18.5 18.8575 -18.5 18.5275 -18.5 18.1875 C-17.654375 18.01734375 -16.80875 17.8471875 -15.9375 17.671875 C-9.25593205 16.24444912 -3.28496073 14.89860688 2.5 11.1875 C3.7271024 8.63418274 3.7271024 8.63418274 4.5 6.1875 C2.43816367 6.10599256 0.37538651 6.0480806 -1.6875 6 C-2.83605469 5.96519531 -3.98460937 5.93039062 -5.16796875 5.89453125 C-8.81830174 6.21548667 -10.48235544 7.21324441 -13.5 9.1875 C-17.1875 9.5 -17.1875 9.5 -20.5 9.1875 C-21.16 8.5275 -21.82 7.8675 -22.5 7.1875 C-22.34572965 4.17922812 -22.00183427 2.68226619 -19.8359375 0.546875 C-14.3382591 -2.65244286 -6.03799199 -1.35970049 0 0 Z " fill="#FAF2F2" transform="translate(895.5,1143.8125)"/>
<path d="M0 0 C2.475 0.99 2.475 0.99 5 2 C4.62746094 2.50789063 4.25492188 3.01578125 3.87109375 3.5390625 C1.68672068 6.7174146 0.10835932 9.13312543 -0.375 13 C2.49730991 19.26685799 8.59638945 23.26568009 14.375 26.75 C19.63900666 29.93776499 19.63900666 29.93776499 21 33 C21.73221872 37.83820472 21.45666038 41.11817306 19.1875 45.5 C17 48 17 48 14 49 C13.875 46.125 13.875 46.125 14 43 C14.66 42.34 15.32 41.68 16 41 C15.91091779 37.70395838 15.1840439 36.2196653 13.0625 33.6875 C10.50561514 31.31697701 7.74258186 29.21242259 5 27.0625 C-0.52844762 22.70400702 -5.57083557 18.61724308 -6.4375 11.3125 C-6.42906525 6.6986915 -4.41929539 4.47186188 -1.3125 1.25 C-0.879375 0.8375 -0.44625 0.425 0 0 Z " fill="#FBF2F2" transform="translate(854,1197)"/>
<path d="M0 0 C3.3828125 0.41015625 3.3828125 0.41015625 5.875 0.9375 C3.87613709 5.55189629 0.56031135 8.80409414 -2.82421875 12.453125 C-4.17437186 13.91101528 -5.50160644 15.39193247 -6.76953125 16.921875 C-8.7132332 19.17078634 -10.27356418 20.79481859 -13.26953125 21.296875 C-15.5 21.3125 -15.5 21.3125 -19.125 20.9375 C-15.79019907 11.75342258 -11.00341387 -0.12025589 0 0 Z " fill="#5E7779" transform="translate(1221.125,1091.0625)"/>
<path d="M0 0 C3.8425303 0.72047443 5.45767292 1.57152696 8 4.5625 C8.94237143 8.56143269 8.61136591 11.54355682 6.5 15.0625 C2.98105682 17.17386591 -0.00106731 17.50487143 -4 16.5625 C-6.99097304 14.02017292 -7.84202557 12.4050303 -8.5625 8.5625 C-7.62098494 3.54108633 -5.02141367 0.94151506 0 0 Z " fill="#FCF6F6" transform="translate(864,1084.4375)"/>
<path d="M0 0 C-0.144375 0.680625 -0.28875 1.36125 -0.4375 2.0625 C-0.623125 3.031875 -0.80875 4.00125 -1 5 C-1.29777344 6.09570312 -1.59554687 7.19140625 -1.90234375 8.3203125 C-2.40783084 12.1791462 -2.40783084 12.1791462 0.4921875 15.01953125 C1.60064948 15.97323183 2.72929355 16.90388045 3.875 17.8125 C9.95219512 22.90439024 9.95219512 22.90439024 11 25 C11.12207871 26.78859511 11.17548448 28.58228381 11.1875 30.375 C11.20167969 31.33148437 11.21585938 32.28796875 11.23046875 33.2734375 C10.99745572 36.03010017 10.40920164 37.64947395 9 40 C8.67 40 8.34 40 8 40 C7.95101562 39.25234375 7.90203125 38.5046875 7.8515625 37.734375 C7.77679687 36.74953125 7.70203125 35.7646875 7.625 34.75 C7.55539062 33.77546875 7.48578125 32.8009375 7.4140625 31.796875 C6.86908535 28.11570861 6.13390949 25.93366057 3.23046875 23.54296875 C2.21919922 22.87201172 2.21919922 22.87201172 1.1875 22.1875 C-2.76571875 19.32159643 -5.88867759 16.46588473 -8 12 C-8.66847798 7.6920308 -8.48316627 5.8110291 -6.25 2.0625 C-4 0 -4 0 0 0 Z " fill="#FAEFEF" transform="translate(860,1226)"/>
<path d="M0 0 C10.28341695 1.70270085 10.28341695 1.70270085 14 6 C15.25 9.375 15.25 9.375 15 13 C12.22201565 16.38759758 8.61484204 18.59010531 5 21 C4.01 21 3.02 21 2 21 C1.93941406 19.73542969 1.87882813 18.47085937 1.81640625 17.16796875 C1.73199096 15.50780129 1.64734345 13.84764563 1.5625 12.1875 C1.52318359 11.35412109 1.48386719 10.52074219 1.44335938 9.66210938 C1.40146484 8.85966797 1.35957031 8.05722656 1.31640625 7.23046875 C1.26141968 6.12288208 1.26141968 6.12288208 1.20532227 4.99291992 C1.05157859 2.792505 1.05157859 2.792505 0 0 Z " fill="#B1060B" transform="translate(866,1170)"/>
<path d="M0 0 C5.305754 2.50271415 8.77740635 5.06540347 12 10 C11.81395349 14.18604651 11.81395349 14.18604651 10 16 C9.63239269 18.32817964 9.29758419 20.6618385 9 23 C4.85423933 20.39684795 1.01328599 17.92640295 -2 14 C-1.92133009 9.59448503 -0.8144295 5.9917449 1 2 C0.01 1.67 -0.98 1.34 -2 1 C-1.34 0.67 -0.68 0.34 0 0 Z " fill="#C23B3F" transform="translate(859,1224)"/>
<path d="M0 0 C1.875 1.0625 1.875 1.0625 3 3 C3.38991688 7.36706908 3.46324069 9.30513897 1 13 C-0.875 13.3984375 -0.875 13.3984375 -3 13.375 C-3.70125 13.38273437 -4.4025 13.39046875 -5.125 13.3984375 C-7 13 -7 13 -9 10 C-9.54170249 3.93293207 -9.54170249 3.93293207 -7.875 1.0625 C-5.11019567 -0.50422245 -3.11811483 -0.38976435 0 0 Z " fill="#5E7779" transform="translate(1321,1096)"/>
<path d="M0 0 C0.99 0.33 1.98 0.66 3 1 C2.96777344 2.22976563 2.93554688 3.45953125 2.90234375 4.7265625 C2.53888807 13.70803459 2.53888807 13.70803459 6.0703125 21.53125 C8.34339596 22.98488331 10.45768656 24.10633831 13 25 C12.34 25.66 11.68 26.32 11 27 C-1.89213424 18.61756489 -1.89213424 18.61756489 -5 13 C-5.20461288 7.98698446 -2.86310988 4.97141048 0 1 C0 0.67 0 0.34 0 0 Z " fill="#B2090E" transform="translate(858,1198)"/>
<path d="M0 0 C1.66611905 -0.042721 3.33382885 -0.04063832 5 0 C6 1 6 1 6.11352539 2.76586914 C6.10828857 3.51473389 6.10305176 4.26359863 6.09765625 5.03515625 C6.09282227 6.24848633 6.09282227 6.24848633 6.08789062 7.48632812 C6.07951172 8.33646484 6.07113281 9.18660156 6.0625 10.0625 C6.05798828 10.91650391 6.05347656 11.77050781 6.04882812 12.65039062 C6.03700373 14.76695663 6.01906769 16.88348685 6 19 C1.125 18.125 1.125 18.125 0 17 C-0.07325168 14.13732433 -0.09238205 11.299281 -0.0625 8.4375 C-0.05798828 7.63119141 -0.05347656 6.82488281 -0.04882812 5.99414062 C-0.03700518 3.99606244 -0.01906914 1.99802217 0 0 Z " fill="#FCF7F7" transform="translate(861,1172)"/>
<path d="M0 0 C0.66 0 1.32 0 2 0 C2.01417969 0.82242187 2.02835938 1.64484375 2.04296875 2.4921875 C2.3474332 9.61830128 3.31927581 14.79944487 6.94140625 20.9765625 C8 23 8 23 8 26 C6.68181446 24.56771184 5.37063296 23.12897516 4.0625 21.6875 C3.33160156 20.88699219 2.60070312 20.08648438 1.84765625 19.26171875 C-1.16232815 15.57719239 -1.13618964 12.54203889 -1.125 7.9375 C-1.12757813 6.87402344 -1.13015625 5.81054688 -1.1328125 4.71484375 C-1 2 -1 2 0 0 Z " fill="#FCF5F6" transform="translate(858,1249)"/>
<path d="M0 0 C2.48046875 1.08203125 2.48046875 1.08203125 5 3 C5.48828125 6.13671875 5.48828125 6.13671875 5.3125 9.6875 C5.26738281 10.86699219 5.22226562 12.04648438 5.17578125 13.26171875 C5.11777344 14.16535156 5.05976562 15.06898437 5 16 C1.125 14.125 1.125 14.125 0 13 C-0.07258946 10.81360547 -0.08373783 8.62499611 -0.0625 6.4375 C-0.05347656 5.23996094 -0.04445313 4.04242187 -0.03515625 2.80859375 C-0.02355469 1.88175781 -0.01195312 0.95492188 0 0 Z " fill="#FDF9F9" transform="translate(862,1228)"/>
<path d="M0 0 C1.984375 1.05078125 1.984375 1.05078125 4 3 C4.390625 6.35546875 4.390625 6.35546875 4.25 10.1875 C4.21390625 11.45980469 4.1778125 12.73210937 4.140625 14.04296875 C4.09421875 15.01878906 4.0478125 15.99460937 4 17 C1.05148444 14.65511755 0.06964494 13.57666013 -0.390625 9.765625 C-0.34421875 8.60546875 -0.2978125 7.4453125 -0.25 6.25 C-0.21390625 5.07953125 -0.1778125 3.9090625 -0.140625 2.703125 C-0.09421875 1.81109375 -0.0478125 0.9190625 0 0 Z " fill="#FDFAFA" transform="translate(862,1251)"/>
<path d="M0 0 C0.66 0 1.32 0 2 0 C4 3 4 3 3.6875 5.625 C3 8 3 8 2 9 C1.63239269 11.32817964 1.29758419 13.6618385 1 16 C-4.875 12.25 -4.875 12.25 -6 10 C-4 11 -2 12 0 13 C0 8.71 0 4.42 0 0 Z " fill="#B6171C" transform="translate(867,1231)"/>
<path d="M0 0 C0.66 0 1.32 0 2 0 C2.24900646 1.93505023 2.47356242 3.87325934 2.6875 5.8125 C2.87892578 7.43091797 2.87892578 7.43091797 3.07421875 9.08203125 C3 12 3 12 1.51953125 13.88671875 C1.01808594 14.25410156 0.51664063 14.62148437 0 15 C-1.47193312 12.05613377 -0.84936173 9.62609964 -0.5625 6.375 C-0.46066406 5.18648437 -0.35882812 3.99796875 -0.25390625 2.7734375 C-0.17011719 1.85820313 -0.08632813 0.94296875 0 0 Z " fill="#D67A7D" transform="translate(866,1255)"/>
<path d="M0 0 C0 3.3 0 6.6 0 10 C-4 7 -4 7 -4.4375 4.4375 C-4.293125 3.633125 -4.14875 2.82875 -4 2 C-1 0 -1 0 0 0 Z " fill="#B00509" transform="translate(861,1231)"/>
<path d="M0 0 C1.98 0.99 1.98 0.99 4 2 C4 3.98 4 5.96 4 8 C2.68 7.67 1.36 7.34 0 7 C0 4.69 0 2.38 0 0 Z " fill="#FBF5F5" transform="translate(862,1274)"/>
<path d="M0 0 C3.87132028 0.57352893 6.08172796 2.48704352 9 5 C4.98525763 5 3.18024863 3.33218233 0 1 C0 0.67 0 0.34 0 0 Z " fill="#B71B1F" transform="translate(862,1219)"/>
</svg>
